<svg xmlns="http://www.w3.org/2000/svg" xmlns:ev="http://www.w3.org/2001/xml-events" xmlns:xlink="http://www.w3.org/1999/xlink" width="757" height="820.249" class="st28" color-interpolation-filters="sRGB" viewBox="0 0 567.75 615.187" xml:space="preserve"><style type="text/css">.st1{fill:none;stroke:none;stroke-linecap:round;stroke-linejoin:round;stroke-width:.75}.st2{fill:#c05046;font-family:Calibri;font-size:1.00001em}.st3{font-size:1em}.st4,.st5{fill:#9dbb61;font-family:Calibri;font-size:1.00001em}.st5{fill:#000}.st6{fill:#ab9ac0}.st6,.st7,.st8,.st9{font-family:Calibri;font-size:1.00001em}.st7{fill:#9dbb61;font-style:italic}.st8,.st9{fill:#000;font-weight:700}.st9{fill:#9dbb61}.st10,.st11{stroke:#c05046}.st10{marker-end:url(#mrkr13-48);stroke-dasharray:11.25,6.75;stroke-linecap:round;stroke-linejoin:round;stroke-width:.75}.st11{fill:#c05046;fill-opacity:1;stroke-opacity:1;stroke-width:.22935779816514}.st12,.st13{stroke:#9dbb61}.st12{marker-start:url(#mrkr11-54);stroke-linecap:round;stroke-linejoin:round;stroke-width:.75}.st13{fill:#9dbb61;fill-opacity:1;stroke-opacity:1;stroke-width:.22935779816514}.st14,.st15{marker-end:url(#mrkr1-60);stroke:#9dbb61;stroke-linecap:round;stroke-linejoin:round;stroke-width:.75}.st15{marker-end:url(#mrkr13-66);stroke:#000}.st16{fill:#000;fill-opacity:1;stroke:#000;stroke-opacity:1;stroke-width:.22935779816514}.st17,.st18,.st19{stroke-linecap:round;stroke-linejoin:round;stroke-width:.75}.st17{marker-end:url(#mrkr13-72);stroke:#9dbb61}.st18,.st19{stroke:#000}.st18{marker-end:url(#mrkr13-66);marker-start:url(#mrkr10-84)}.st19{marker-end:url(#mrkr1-91)}.st20,.st21{stroke:#ab9ac0}.st20{marker-end:url(#mrkr1-112);stroke-linecap:round;stroke-linejoin:round;stroke-width:.75}.st21{fill:#ab9ac0;fill-opacity:1;stroke-opacity:1;stroke-width:.22935779816514}.st22,.st23{stroke:#9dbb61}.st22{marker-end:url(#mrkr1-138);stroke-linecap:round;stroke-linejoin:round;stroke-width:.75}.st23{fill:#9dbb61;fill-opacity:1;stroke-opacity:1;stroke-width:.34246575342466}.st24{marker-end:url(#mrkr4-159);marker-start:url(#mrkr10-84)}.st24,.st25{stroke:#000;stroke-linecap:round;stroke-linejoin:round;stroke-width:.75}.st25,.st26{stroke-dasharray:5.25,3.75}.st26,.st27{stroke:#9dbb61;stroke-linecap:round;stroke-linejoin:round;stroke-width:.75}.st28{fill:none;fill-rule:evenodd;font-size:12px;overflow:visible;stroke-linecap:square;stroke-miterlimit:3}</style><defs id="Markers"><g id="lend13"><path d="M 3 1 L 0 0 L 3 -1 L 3 1" style="stroke:none"/></g><marker id="mrkr13-48" class="st11" markerUnits="strokeWidth" orient="auto" overflow="visible" refX="-13.08"><use transform="scale(-4.36,-4.36)" xlink:href="#lend13"/></marker><g id="lend11"><path d="M 0.75 -0.75 L 0.75 0.75 L -0.75 0.75 L -0.75 -0.75 L 0.75 -0.75" style="stroke:none"/></g><marker id="mrkr11-54" class="st13" markerUnits="strokeWidth" orient="auto" overflow="visible" refX="2.79"><use transform="scale(4.36)" xlink:href="#lend11"/></marker><g id="lend1"><path d="M 1 -1 L 0 0 L 1 1" style="stroke-linecap:round;stroke-linejoin:round;fill:none"/></g><marker id="mrkr1-60" class="st13" markerUnits="strokeWidth" orient="auto" overflow="visible"><use transform="scale(-4.36,-4.36)" xlink:href="#lend1"/></marker><marker id="mrkr13-66" class="st16" markerUnits="strokeWidth" orient="auto" overflow="visible" refX="-13.08"><use transform="scale(-4.36,-4.36)" xlink:href="#lend13"/></marker><marker id="mrkr13-72" class="st13" markerUnits="strokeWidth" orient="auto" overflow="visible" refX="-13.08"><use transform="scale(-4.36,-4.36)" xlink:href="#lend13"/></marker><g id="lend10"><path d="M 0 0.75 C -0.414214 0.75 -0.75 0.414214 -0.75 0 -0.75 -0.414214 -0.414214 -0.75 0 -0.75 0.414214 -0.75 0.75 -0.414214 0.75 0 0.75 0.414214 0.414214 0.75 0 0.75 Z" style="stroke:none"/></g><marker id="mrkr10-84" class="st16" markerUnits="strokeWidth" orient="auto" overflow="visible" refX="2.79"><use transform="scale(4.36)" xlink:href="#lend10"/></marker><marker id="mrkr1-91" class="st16" markerUnits="strokeWidth" orient="auto" overflow="visible"><use transform="scale(-4.36,-4.36)" xlink:href="#lend1"/></marker><marker id="mrkr1-112" class="st21" markerUnits="strokeWidth" orient="auto" overflow="visible"><use transform="scale(-4.36,-4.36)" xlink:href="#lend1"/></marker><marker id="mrkr1-138" class="st23" markerUnits="strokeWidth" orient="auto" overflow="visible"><use transform="scale(-2.92,-2.92)" xlink:href="#lend1"/></marker><g id="lend4"><path d="M 2 1 L 0 0 L 2 -1 L 2 1" style="stroke:none"/></g><marker id="mrkr4-159" class="st16" markerUnits="strokeWidth" orient="auto" overflow="visible" refX="-8.72"><use transform="scale(-4.36,-4.36)" xlink:href="#lend4"/></marker></defs><g><title>Page-1</title><g id="shape4-1" transform="translate(243.375,-506.812)"><title>Sheet.4</title><desc>Create game loop thread</desc><rect width="101.25" height="33.5" x="0" y="581.687" class="st1"/><text x="7.43" y="594.84" class="st2">Create game loop <tspan x="34.36" class="st3" dy="1.2em">thread</tspan></text></g><g id="shape5-5" transform="translate(445.875,-479.812)"><title>Sheet.5</title><desc>GameLoopStarting event</desc><rect width="103.5" height="20" x="0" y="595.187" class="st1"/><text x="4" y="601.59" class="st4">GameLoopStarting<tspan x="4" class="st3" dy="1.2em">event</tspan></text></g><g id="shape6-9" transform="translate(18.375,-429.312)"><title>Sheet.6</title><desc>Loaded event</desc><rect width="152" height="20" x="0" y="595.187" class="st1"/><text x="81.9" y="608.79" class="st5">Loaded event</text></g><g id="shape7-12" transform="translate(18.375,-393.312)"><title>Sheet.7</title><desc>CreateResources event</desc><rect width="152" height="20" x="0" y="595.187" class="st1"/><text x="35.58" y="608.79" class="st5">CreateResources event</text></g><g id="shape8-15" transform="translate(55.375,-331.312)"><title>Sheet.8</title><desc>Async CreateResources completed (any thread)</desc><rect width="152" height="31.5" x="0" y="583.687" class="st1"/><text x="34.81" y="588.64" class="st6">Async CreateResources <tspan x="95.69" class="st3" dy="1.2em">completed</tspan><tspan x="87.99" class="st3" dy="1.2em">(</tspan>any thread)</text></g><g id="shape9-20" transform="translate(344.625,-322.312)"><title>Sheet.9</title><desc>Dispatcher starts processing events</desc><rect width="204.75" height="20" x="0" y="595.187" class="st1"/><text x="16.75" y="608.79" class="st7">Dispatcher starts processing events</text></g><g id="shape10-23" transform="translate(361.375,-232.312)"><title>Sheet.10</title><desc>Update Draw RunOnGameLoopThread actions Input events etc.</desc><rect width="188" height="72.5" x="0" y="542.687" class="st1"/><text x="147.95" y="553.74" class="st4">Update<tspan x="158.11" class="st3" dy="1.2em">Draw</tspan><tspan x="25.75" class="st3" dy="1.2em">RunOnGameLoopThread actions</tspan><tspan x="122.95" class="st3" dy="1.2em">Input events</tspan><tspan x="165.91" class="st3" dy="1.2em">etc</tspan>.</text></g><g id="shape12-30" transform="translate(445.875,-138.812)"><title>Sheet.12</title><desc>GameLoopStopped event</desc><rect width="103.5" height="20" x="0" y="595.187" class="st1"/><text x="4" y="601.59" class="st4">GameLoopStopped<tspan x="4" class="st3" dy="1.2em">event</tspan></text></g><g id="shape13-34" transform="translate(18.375,-87.3119)"><title>Sheet.13</title><desc>Unloaded event</desc><rect width="152" height="20" x="0" y="595.187" class="st1"/><text x="70.19" y="608.79" class="st5">Unloaded event</text></g><g id="shape15-37" transform="translate(91.375,-576.812)"><title>Sheet.15</title><desc>UI THREAD</desc><rect width="152" height="20" x="0" y="595.187" class="st1"/><text x="93.3" y="608.79" class="st8">UI THREAD</text></g><g id="shape20-40" transform="translate(344.625,-576.812)"><title>Sheet.20</title><desc>GAME LOOP THREAD</desc><rect width="152" height="20" x="0" y="595.187" class="st1"/><text x="4" y="608.79" class="st9">GAME LOOP THREAD</text></g><g id="shape29-43" transform="translate(243.375,-506.812)"><title>Sheet.29</title><path d="M0 615.19 L91.44 615.19" class="st10"/></g><g id="shape30-49" transform="translate(959.812,108.375) rotate(90)"><title>Sheet.30</title><path d="M2.09 615.19 L2.45 615.19 L18 615.19" class="st12"/></g><g id="shape33-55" transform="translate(344.625,-488.812)"><title>Sheet.33</title><path d="M0 615.19 L101.25 615.19" class="st14"/></g><g id="shape35-61" transform="translate(858.562,38.375) rotate(90)"><title>Sheet.35</title><path d="M0 615.19 L60.19 615.19" class="st15"/></g><g id="shape36-67" transform="translate(959.812,126.375) rotate(90)"><title>Sheet.36</title><path d="M0 615.19 L26.19 615.19" class="st17"/></g><g id="shape37-73" transform="translate(344.625,764.062) rotate(180)"><title>Sheet.37</title><path d="M0 615.19 L91.44 615.19" class="st10"/></g><g id="shape38-78" transform="translate(858.562,148.875) rotate(90)"><title>Sheet.38</title><path d="M2.09 615.19 L2.45 615.19 L17.19 615.19" class="st18"/></g><g id="shape39-86" transform="translate(243.375,791.062) rotate(180)"><title>Sheet.39</title><path d="M0 615.19 L72 615.19" class="st19"/></g><g id="shape40-92" transform="translate(858.562,175.875) rotate(90)"><title>Sheet.40</title><path d="M0 615.19 L26.19 615.19" class="st15"/></g><g id="shape41-97" transform="translate(243.375,827.062) rotate(180)"><title>Sheet.41</title><path d="M0 615.19 L72 615.19" class="st19"/></g><g id="shape42-102" transform="translate(858.562,211.875) rotate(90)"><title>Sheet.42</title><path d="M0 615.19 L44.19 615.19" class="st15"/></g><g id="shape43-107" transform="translate(207.375,-349.312)"><title>Sheet.43</title><path d="M0 615.19 L36 615.19" class="st20"/></g><g id="shape45-113" transform="translate(243.375,-340.312)"><title>Sheet.45</title><path d="M0 615.19 L91.44 615.19" class="st10"/></g><g id="shape49-118" transform="translate(858.562,265.875) rotate(90)"><title>Sheet.49</title><path d="M0 615.19 L138.69 615.19" class="st15"/></g><g id="shape50-123" transform="translate(243.375,-200.812)"><title>Sheet.50</title><path d="M0 615.19 L91.44 615.19" class="st10"/></g><g id="shape51-128" transform="translate(959.812,274.875) rotate(90)"><title>Sheet.51</title><path d="M0 615.19 L129.69 615.19" class="st17"/></g><g id="shape52-133" transform="translate(344.625,-295.312)"><title>Sheet.52</title><path d="M0 615.19 L150.75 615.19" class="st22"/></g><g id="shape53-139" transform="translate(344.625,-178.812)"><title>Sheet.53</title><desc>Dispatcher stops processing events</desc><rect width="204.75" height="20" x="0" y="595.187" class="st1"/><text x="17.74" y="608.79" class="st7">Dispatcher stops processing events</text></g><g id="shape55-142" transform="translate(959.812,414.375) rotate(90)"><title>Sheet.55</title><path d="M0 615.19 L44.19 615.19" class="st17"/></g><g id="shape56-147" transform="translate(344.625,-146.812)"><title>Sheet.56</title><path d="M0 615.19 L96.75 615.19" class="st14"/></g><g id="shape58-152" transform="translate(858.562,486.375) rotate(90)"><title>Sheet.58</title><path d="M2.09 615.19 L2.45 615.19 L96.96 615.19" class="st24"/></g><g id="shape59-160" transform="translate(243.375,1133.06) rotate(180)"><title>Sheet.59</title><path d="M0 615.19 L72 615.19" class="st19"/></g><g id="shape66-165" transform="translate(959.812,468.375) rotate(90)"><title>Sheet.66</title><path d="M0 615.19 L33.19 615.19" class="st17"/></g><g id="shape67-170" transform="translate(344.625,1101.56) rotate(180)"><title>Sheet.67</title><path d="M0 615.19 L91.44 615.19" class="st10"/></g><g id="shape69-175" transform="translate(243.375,-209.812)"><title>Sheet.69</title><desc>Shutdown game loop thead</desc><rect width="101.25" height="20" x="0" y="595.187" class="st1"/><text x="10.96" y="601.59" class="st2">Shutdown game <tspan x="24.24" class="st3" dy="1.2em">loop thead</tspan></text></g><g id="shape1000-179" transform="translate(344.625,-286.312)"><title>Sheet.1000</title><path d="M0 615.19 L150.75 615.19" class="st22"/></g><g id="shape1001-184" transform="translate(344.625,-277.312)"><title>Sheet.1001</title><path d="M0 615.19 L150.75 615.19" class="st22"/></g><g id="shape1002-189" transform="translate(344.625,-304.812)"><title>Sheet.1002</title><path d="M0 615.19 L150.75 615.19" class="st22"/></g><g id="shape1003-194" transform="translate(344.625,-240.812)"><title>Sheet.1003</title><path d="M0 615.19 L150.75 615.19" class="st22"/></g><g id="shape1005-199" transform="translate(344.625,-221.062)"><title>Sheet.1005</title><path d="M0 615.19 L150.75 615.19" class="st22"/></g><g id="shape1007-204" transform="translate(82.375,-522.812)"><title>Sheet.1007</title><desc>internal Loaded</desc><rect width="152" height="20" x="0" y="595.187" class="st1"/><text x="37.77" y="608.79" class="st5">internal Loaded</text></g><g id="shape1008-207" transform="translate(207.375,-533.812)"><title>Sheet.1008</title><path d="M0 615.19 L36 615.19" class="st19"/></g><g id="shape1009-212" transform="translate(55.375,-217.812)"><title>Sheet.1009</title><desc>internal Unloaded</desc><rect width="152" height="20" x="0" y="595.187" class="st1"/><text x="59.83" y="608.79" class="st5">internal Unloaded</text></g><g id="shape1010-215" transform="translate(207.375,-227.812)"><title>Sheet.1010</title><path d="M0 615.19 L36 615.19" class="st19"/></g><g id="shape1014-220" transform="translate(858.562,108.375) rotate(90)"><title>Sheet.1014</title><path d="M0 615.19 L40.5 615.19" class="st25"/></g><g id="shape1015-223" transform="translate(858.562,414.375) rotate(90)"><title>Sheet.1015</title><path d="M0 615.19 L72 615.19" class="st25"/></g><g id="shape1016-226" transform="translate(959.812,162.375) rotate(90)"><title>Sheet.1016</title><path d="M0 615.19 L112.5 615.19" class="st26"/></g><g id="shape1018-229" transform="translate(294,-83.8119)"><title>Sheet.1018</title><desc>Thread exit</desc><rect width="101.25" height="20" x="0" y="595.187" class="st1"/><text x="23.12" y="608.79" class="st4">Thread exit</text></g><g id="shape1023-232" transform="translate(344.625,-311.562)"><title>Sheet.1023</title><path d="M0 615.19 L150.75 615.19" class="st22"/></g><g id="shape1025-237" transform="translate(344.625,-234.187)"><title>Sheet.1025</title><path d="M0 615.19 L150.75 615.19" class="st22"/></g><g id="shape1026-242" transform="translate(344.625,-227.812)"><title>Sheet.1026</title><path d="M0 615.19 L150.75 615.19" class="st22"/></g><g id="shape1034-247" transform="translate(344.625,-269.812)"><title>Sheet.1034</title><path d="M0 615.19 L38.25 615.19" class="st27"/></g><g id="shape1035-250" transform="translate(344.625,-259.312)"><title>Sheet.1035</title><path d="M0 615.19 L38.25 615.19" class="st27"/></g><g id="shape1036-253" transform="translate(344.625,-250.312)"><title>Sheet.1036</title><path d="M0 615.19 L132.75 615.19" class="st27"/></g></g></svg>