<svg xmlns="http://www.w3.org/2000/svg" xmlns:ev="http://www.w3.org/2001/xml-events" xmlns:xlink="http://www.w3.org/1999/xlink" width="822.32" height="195.797" class="st10" color-interpolation-filters="sRGB" viewBox="0 0 616.74 146.848" xml:space="preserve"><style type="text/css">.st1{fill:#bfbfbf;stroke:#000;stroke-linecap:round;stroke-linejoin:round;stroke-width:.24}.st2{fill:#000;font-family:Calibri;font-size:.833336em}.st3{font-size:1em}.st4{fill:#c4d6a0;stroke-width:.24}.st4,.st5,.st6{stroke:#000;stroke-linecap:round;stroke-linejoin:round}.st5{fill:#f9c499;stroke-width:.24}.st6{marker-end:url(#mrkr13-17);stroke-width:.75}.st7,.st8{fill:#000;fill-opacity:1;stroke:#000;stroke-opacity:1;stroke-width:.22935779816514}.st8{stroke-width:.08695652173913}.st9{fill:#fff;fill-opacity:0;stroke:#c05046;stroke-dasharray:1.68,1.2;stroke-linecap:round;stroke-linejoin:round;stroke-width:.24}.st10{fill:none;fill-rule:evenodd;font-size:12px;overflow:visible;stroke-linecap:square;stroke-miterlimit:3}</style><defs id="Markers"><g id="lend13"><path d="M 3 1 L 0 0 L 3 -1 L 3 1" style="stroke:none"/></g><marker id="mrkr13-17" class="st7" markerUnits="strokeWidth" orient="auto" overflow="visible" refX="-13.08"><use transform="scale(-4.36,-4.36)" xlink:href="#lend13"/></marker><marker id="mrkr13-21" class="st8" markerUnits="strokeWidth" orient="auto" overflow="visible" refX="-34.5"><use transform="scale(-11.5,-11.5)" xlink:href="#lend13"/></marker></defs><g><title>Page-1</title><g id="shape134-1" transform="translate(0.12,-84.12)"><title>Rectangle.134</title><desc>Input Bitmap Texture</desc><rect width="81" height="30" x="0" y="116.848" class="st1"/><text x="14" y="128.85" class="st2">Input Bitmap <tspan x="24.88" class="st3" dy="1.2em">Texture</tspan></text></g><g id="shape135-5" transform="translate(132.87,-60.12)"><title>Rounded Rectangle.135</title><desc>Brightness Effect</desc><path d="M15.75 146.85 L141.75 146.85 A15.7497 15.7497 -180 0 0 157.5 131.1 L157.5 84.6 A15.7497 15.7497 -180 0 0 141.75 68.85 L15.75 68.85 A15.7497 15.7497 -180 0 0 -0 84.6 L0 131.1 A15.7497 15.7497 -180 0 0 15.75 146.85 Z" class="st4"/><text x="44.56" y="81.85" class="st2">Brightness Effect</text></g><g id="shape136-8" transform="translate(148.62,-84.12)"><title>Ellipse.136</title><desc>Transform with Pixel shader</desc><path d="M0 131.85 A63 15 0 0 1 126 131.85 A63 15 0 1 1 0 131.85 Z" class="st5"/><text x="21.13" y="128.85" class="st2">Transform with Pixel <tspan x="49.16" class="st3" dy="1.2em">shader</tspan></text></g><g id="shape137-12" transform="translate(81.12,-90.12)"><title>Dynamic connector.137</title><path d="M0 137.85 L57.69 137.85" class="st6"/></g><g id="shape138-18" transform="translate(328.62,-60.12)"><title>Rounded Rectangle.138</title><desc>Saturation Effect</desc><path d="M15.75 146.85 L141.75 146.85 A15.7497 15.7497 -180 0 0 157.5 131.1 L157.5 84.6 A15.7497 15.7497 -180 0 0 141.75 68.85 L15.75 68.85 A15.7497 15.7497 -180 0 0 -0 84.6 L0 131.1 A15.7497 15.7497 -180 0 0 15.75 146.85 Z" class="st4"/><text x="44.63" y="81.85" class="st2">Saturation Effect</text></g><g id="shape139-23" transform="translate(344.37,-84.12)"><title>Ellipse.139</title><desc>Transform with Pixel shader</desc><path d="M0 131.85 A63 15 0 0 1 126 131.85 A63 15 0 1 1 0 131.85 Z" class="st5"/><text x="21.13" y="128.85" class="st2">Transform with Pixel <tspan x="49.16" class="st3" dy="1.2em">shader</tspan></text></g><g id="shape140-28" transform="translate(274.62,-90.12)"><title>Dynamic connector.140</title><path d="M0 137.85 L59.94 137.85" class="st6"/></g><g id="shape142-33" transform="translate(0.12,-0.12)"><title>Rectangle.142</title><desc>Single D3D draw call only in Windows Threshold</desc><path d="M0 146.85 L126 146.85 L126 116.85 L0 116.85 L0 146.85 Z" class="st9"/><text x="7.01" y="128.85" class="st2">Single D3D draw call only in <tspan x="22.57" class="st3" dy="1.2em">Windows Threshold</tspan></text></g><g id="shape143-37" transform="translate(136.245,-78.87)"><title>Rectangle.143</title><path d="M0 146.85 L363.37 146.85 L363.37 108.6 L0 108.6 L0 146.85 Z" class="st9"/></g><g id="shape145-39" transform="translate(535.62,-84.12)"><title>Rectangle.145</title><desc>Output Bitmap Texture</desc><rect width="81" height="30" x="0" y="116.848" class="st1"/><text x="10.27" y="128.85" class="st2">Output Bitmap <tspan x="24.88" class="st3" dy="1.2em">Texture</tspan></text></g><g id="shape147-43" transform="translate(470.37,-90.12)"><title>Dynamic connector.147</title><path d="M0 137.85 L55.44 137.85" class="st6"/></g></g></svg>