<svg xmlns="http://www.w3.org/2000/svg" xmlns:ev="http://www.w3.org/2001/xml-events" xmlns:xlink="http://www.w3.org/1999/xlink" width="942.32" height="331.797" class="st11" color-interpolation-filters="sRGB" viewBox="0 0 706.74 248.848" xml:space="preserve"><style type="text/css">.st1{fill:#bfbfbf;stroke:#000;stroke-linecap:round;stroke-linejoin:round;stroke-width:.24}.st2{fill:#000;font-family:Calibri;font-size:.833336em}.st3{font-size:1em}.st4,.st5{stroke:#000}.st4{fill:#c4d6a0;stroke-linecap:round;stroke-linejoin:round;stroke-width:.24}.st5{fill:#000;fill-opacity:1;stroke-opacity:1;stroke-width:.08695652173913}.st6,.st7{stroke-linecap:round;stroke-linejoin:round;stroke-width:.24}.st6{fill:#f9c499;stroke:#000}.st7{fill:#fff;fill-opacity:0;stroke-dasharray:1.68,1.2}.st7,.st8,.st9{stroke:#000}.st8{marker-end:url(#mrkr13-39);stroke-linecap:round;stroke-linejoin:round;stroke-width:.75}.st9{fill:#000;fill-opacity:1;stroke-opacity:1;stroke-width:.22935779816514}.st10{marker-end:url(#mrkr5-45);stroke:#000;stroke-linecap:round;stroke-linejoin:round;stroke-width:.75}.st11{fill:none;fill-rule:evenodd;font-size:12px;overflow:visible;stroke-linecap:square;stroke-miterlimit:3}</style><defs id="Markers"><g id="lend13"><path d="M 3 1 L 0 0 L 3 -1 L 3 1" style="stroke:none"/></g><marker id="mrkr13-8" class="st5" markerUnits="strokeWidth" orient="auto" overflow="visible" refX="-34.5"><use transform="scale(-11.5,-11.5)" xlink:href="#lend13"/></marker><marker id="mrkr13-39" class="st9" markerUnits="strokeWidth" orient="auto" overflow="visible" refX="-13.08"><use transform="scale(-4.36,-4.36)" xlink:href="#lend13"/></marker><g id="lend5"><path d="M 2 1 L 0 0 L 1.98117 -0.993387 C 1.67173 -0.364515 1.67301 0.372641 1.98465 1.00043" style="stroke:none"/></g><marker id="mrkr5-45" class="st9" markerUnits="strokeWidth" orient="auto" overflow="visible" refX="-7.63"><use transform="scale(-4.36,-4.36)" xlink:href="#lend5"/></marker></defs><g><title>Page-1</title><g id="shape76-1" transform="translate(625.62,-78.12)"><title>Rectangle.76</title><desc>Output Bitmap Texture</desc><rect width="81" height="30" x="0" y="218.848" class="st1"/><text x="10.27" y="230.85" class="st2">Output Bitmap <tspan x="24.88" class="st3" dy="1.2em">Texture</tspan></text></g><g id="shape77-5" transform="translate(243.12,-54.12)"><title>Rounded Rectangle.77</title><desc>Crop Effect</desc><path d="M15.75 248.85 L141.75 248.85 A15.7497 15.7497 -180 0 0 157.5 233.1 L157.5 186.6 A15.7497 15.7497 -180 0 0 141.75 170.85 L15.75 170.85 A15.7497 15.7497 -180 0 0 0 186.6 L0 233.1 A15.7497 15.7497 -180 0 0 15.75 248.85 Z" class="st4"/><text x="56.18" y="183.85" class="st2">Crop Effect</text></g><g id="shape78-10" transform="translate(281.37,-78.12)"><title>Ellipse.78</title><desc>Transform with no shaders</desc><path d="M0 233.85 A40.5 15 0 0 1 81 233.85 A40.5 15 0 1 1 0 233.85 Z" class="st6"/><text x="9.29" y="230.85" class="st2">Transform with <tspan x="18.32" class="st3" dy="1.2em">no shaders</tspan></text></g><g id="shape79-15" transform="translate(0.12,-186.12)"><title>Rectangle.79</title><desc>Input Bitmap Texture</desc><rect width="81" height="30" x="0" y="218.848" class="st1"/><text x="14" y="230.85" class="st2">Input Bitmap <tspan x="24.88" class="st3" dy="1.2em">Texture</tspan></text></g><g id="shape83-19" transform="translate(0.12,-0.12)"><title>Rectangle.83</title><desc>Single D3D draw call</desc><path d="M0 248.85 L126 248.85 L126 218.85 L0 218.85 L0 248.85 Z" class="st7"/><text x="21.72" y="236.85" class="st2">Single D3D draw call</text></g><g id="shape84-22" transform="translate(132.87,-162.12)"><title>Rounded Rectangle.84</title><desc>Border Effect</desc><path d="M15.75 248.85 L141.75 248.85 A15.7497 15.7497 -180 0 0 157.5 233.1 L157.5 186.6 A15.7497 15.7497 -180 0 0 141.75 170.85 L15.75 170.85 A15.7497 15.7497 -180 0 0 -0 186.6 L0 233.1 A15.7497 15.7497 -180 0 0 15.75 248.85 Z" class="st4"/><text x="51.89" y="183.85" class="st2">Border Effect</text></g><g id="shape85-25" transform="translate(155.37,-186.12)"><title>Ellipse.85</title><desc>Border Transform</desc><path d="M0 233.85 A54 15 0 0 1 108 233.85 A54 15 0 0 1 0 233.85 Z" class="st6"/><text x="17.85" y="236.85" class="st2">Border Transform</text></g><g id="shape86-28" transform="translate(427.62,-54.12)"><title>Rounded Rectangle.86</title><desc>Border Effect</desc><path d="M15.75 248.85 L141.75 248.85 A15.7497 15.7497 -180 0 0 157.5 233.1 L157.5 186.6 A15.7497 15.7497 -180 0 0 141.75 170.85 L15.75 170.85 A15.7497 15.7497 -180 0 0 -0 186.6 L0 233.1 A15.7497 15.7497 -180 0 0 15.75 248.85 Z" class="st4"/><text x="51.89" y="183.85" class="st2">Border Effect</text></g><g id="shape87-31" transform="translate(452.37,-78.12)"><title>Ellipse.87</title><desc>Border Transform</desc><path d="M0 233.85 A54 15 0 0 1 108 233.85 A54 15 0 0 1 0 233.85 Z" class="st6"/><text x="17.85" y="236.85" class="st2">Border Transform</text></g><g id="shape88-34" transform="translate(362.37,-84.12)"><title>Dynamic connector.88</title><path d="M0 239.85 L80.19 239.85" class="st8"/></g><g id="shape90-40" transform="translate(560.37,-84.12)"><title>Dynamic connector.90</title><path d="M0 239.85 L59.53 239.85" class="st10"/></g><g id="shape92-46" transform="translate(81.12,-192.12)"><title>Dynamic connector.92</title><path d="M0 239.85 L64.44 239.85" class="st8"/></g><g id="shape93-51" transform="translate(351.12,-162.12)"><title>Rounded Rectangle.93</title><desc>Scale Effect</desc><path d="M15.75 248.85 L141.75 248.85 A15.7497 15.7497 -180 0 0 157.5 233.1 L157.5 186.6 A15.7497 15.7497 -180 0 0 141.75 170.85 L15.75 170.85 A15.7497 15.7497 -180 0 0 -0 186.6 L0 233.1 A15.7497 15.7497 -180 0 0 15.75 248.85 Z" class="st4"/><text x="55.41" y="183.85" class="st2">Scale Effect</text></g><g id="shape94-55" transform="translate(373.62,-186.12)"><title>Ellipse.94</title><desc>Transform with vertex shader</desc><path d="M0 233.85 A54 15 0 0 1 108 233.85 A54 15 0 0 1 0 233.85 Z" class="st6"/><text x="21.66" y="230.85" class="st2">Transform with <tspan x="26.22" class="st3" dy="1.2em">vertex shader</tspan></text></g><g id="shape98-60" transform="translate(72.12,-54.12)"><title>Rounded Rectangle.98</title><desc>Color matrix Effect</desc><path d="M15.75 248.85 L141.75 248.85 A15.7497 15.7497 -180 0 0 157.5 233.1 L157.5 186.6 A15.7497 15.7497 -180 0 0 141.75 170.85 L15.75 170.85 A15.7497 15.7497 -180 0 0 0 186.6 L0 233.1 A15.7497 15.7497 -180 0 0 15.75 248.85 Z" class="st4"/><text x="40.77" y="183.85" class="st2">Color matrix Effect</text></g><g id="shape99-63" transform="translate(102.334,-78.12)"><title>Ellipse.99</title><desc>Transform with Pixel shader</desc><path d="M0 233.85 A46.2857 15 0 0 1 92.57 233.85 A46.2857 15 0 1 1 -0 233.85 Z" class="st6"/><text x="15.07" y="230.85" class="st2">Transform with <tspan x="21.79" class="st3" dy="1.2em">Pixel shader</tspan></text></g><g id="shape104-67" transform="translate(194.906,-84.12)"><title>Dynamic connector.104</title><path d="M0 239.85 L76.65 239.85" class="st8"/></g><g id="shape82-72" transform="translate(94.62,-67.62)"><title>Rectangle.82</title><path d="M0 248.85 L472.5 248.85 L472.5 95.85 L0 95.85 L0 248.85 Z" class="st7"/></g><g id="shape106-74" transform="translate(494.621,302.386) rotate(164.381)"><title>Sheet.106</title><path d="M0 248.85 L283.98 248.85" class="st10"/></g><g id="shape91-79" transform="translate(263.37,-192.12)"><title>Dynamic connector.91</title><path d="M0 239.85 L100.44 239.85" class="st8"/></g></g></svg>