<svg xmlns="http://www.w3.org/2000/svg" xmlns:ev="http://www.w3.org/2001/xml-events" xmlns:xlink="http://www.w3.org/1999/xlink" width="489.95" height="1060.272" class="st13" color-interpolation-filters="sRGB" viewBox="0 0 367.462 795.202" xml:space="preserve"><style type="text/css">.st1{visibility:visible}.st2{fill:#5b9bd5;fill-opacity:.25;filter:url(#filter_2);stroke:#5b9bd5;stroke-opacity:.25}.st3{fill:#4f87bb;stroke:#41719c;stroke-width:.75}.st4{fill:#feffff;font-family:Calibri;font-size:.666664em}.st5{font-size:1em}.st6,.st7{stroke:#5b9bd5}.st6{marker-end:url(#mrkr4-21);stroke-linecap:round;stroke-linejoin:round;stroke-width:1}.st7{fill:#5b9bd5;fill-opacity:1;stroke-opacity:1;stroke-width:.28409090909091}.st8{fill:#fff;stroke:none;stroke-linecap:butt;stroke-width:7.2}.st9{fill:#4f87bb;font-family:Calibri;font-size:.666664em}.st10{fill:#fff;stroke:none;stroke-linecap:butt}.st11{fill:#5b9bd5;fill-opacity:.22;filter:url(#filter_2);stroke:#5b9bd5;stroke-opacity:.22}.st12{fill:#5b9bd5;stroke:#c8c8c8;stroke-width:.25}.st13{fill:none;fill-rule:evenodd;font-size:12px;overflow:visible;stroke-linecap:square;stroke-miterlimit:3}</style><defs id="Markers"><g id="lend4"><path d="M 2 1 L 0 0 L 2 -1 L 2 1" style="stroke:none"/></g><marker id="mrkr4-21" class="st7" markerUnits="strokeWidth" orient="auto" overflow="visible" refX="-7.04"><use transform="scale(-3.52,-3.52)" xlink:href="#lend4"/></marker></defs><defs id="Filters"><filter id="filter_2"><feGaussianBlur stdDeviation="2"/></filter></defs><g><title>Page-1</title><g id="shape1-1" transform="translate(38,-385.585)"><title>Decision</title><desc>Is node contained within another effect</desc><g id="shadow1-2" class="st1"><path d="M0 760.33 L46.5 725.45 L93 760.33 L46.5 795.2 L0 760.33 Z" class="st2" transform="matrix(1,0,0,1,0.345598,1.97279)"/></g><path d="M0 760.33 L46.5 725.45 L93 760.33 L46.5 795.2 L0 760.33 Z" class="st3"/><text x="17.55" y="757.93" class="st4">Is node contained <tspan x="12.05" class="st5" dy="1.2em">within another effect</tspan></text></g><g id="shape2-8" transform="translate(48.5,-756)"><title>Start/End</title><desc>Get precision of node (Effect or transform)</desc><g id="shadow2-9" class="st1"><path d="M18 795.2 L54 795.2 A18 18.9 -180 0 0 54 757.4 L18 757.4 A18 18.9 -180 1 0 18 795.2 Z" class="st2" transform="matrix(1,0,0,1,0.345598,1.97279)"/></g><path d="M18 795.2 L54 795.2 A18 18.9 -180 0 0 54 757.4 L18 757.4 A18 18.9 -180 1 0 18 795.2 Z" class="st3"/><text x="10.22" y="769.1" class="st4">Get precision of <tspan x="11.76" class="st5" dy="1.2em">node </tspan>(Effect or <tspan x="18.55" class="st5" dy="1.2em">transform</tspan>)</text></g><g id="shape3-16" transform="translate(131,-411.46)"><title>Dynamic connector</title><desc>Yes</desc><path d="M0 786.2 L33.42 786.2" class="st6"/><rect width="11.008" height="9.6" x="14.726" y="781.403" class="st8"/><text x="14.73" y="788.6" class="st9">Yes</text></g><g id="shape4-24" transform="translate(38,-232.585)"><title>Decision.4</title><desc>Is precision set in rendering controls</desc><g id="shadow4-25" class="st1"><path d="M0 760.33 L46.5 725.45 L93 760.33 L46.5 795.2 L0 760.33 Z" class="st2" transform="matrix(1,0,0,1,0.345598,1.97279)"/></g><path d="M0 760.33 L46.5 725.45 L93 760.33 L46.5 795.2 L0 760.33 Z" class="st3"/><text x="18.51" y="757.93" class="st4">Is precision set in <tspan x="16.49" class="st5" dy="1.2em">rendering controls</tspan></text></g><g id="shape5-31" transform="translate(84.5,-385.585)"><title>Dynamic connector.5</title><desc>No</desc><path d="M0 795.2 L0 813.2 L-64.5 813.2 L-64.5 913.33 L-53.54 913.33" class="st6"/><rect width="9.383" height="9.6" x="-69.191" y="826.215" class="st8"/><text x="-69.19" y="833.41" class="st9">No</text></g><g id="shape6-38" transform="translate(171.46,-302.335)"><title>Decision.10</title><desc>Is precision of containing effect Unkown</desc><g id="shadow6-39" class="st1"><path d="M0 760.33 L36 725.45 L72 760.33 L36 795.2 L0 760.33 Z" class="st2" transform="matrix(1,0,0,1,0.345598,1.97279)"/></g><path d="M0 760.33 L36 725.45 L72 760.33 L36 795.2 L0 760.33 Z" class="st3"/><text x="13.5" y="753.13" class="st4">Is precision of <tspan x="8.56" class="st5" dy="1.2em">containing effect </tspan><tspan x="22.44" class="st5" dy="1.2em">Unkown</tspan></text></g><g id="shape7-46" transform="translate(171.46,-79.5851)"><title>Start/End.11</title><desc>Use maximum precision of inputs</desc><g id="shadow7-47" class="st1"><path d="M13.5 795.2 L58.5 795.2 A13.5 13.5 -180 0 0 58.5 768.2 L13.5 768.2 A13.5 13.5 -180 1 0 13.5 795.2 Z" class="st2" transform="matrix(1,0,0,1,0.345598,1.97279)"/></g><path d="M13.5 795.2 L58.5 795.2 A13.5 13.5 -180 0 0 58.5 768.2 L13.5 768.2 A13.5 13.5 -180 1 0 13.5 795.2 Z" class="st3"/><text x="12.72" y="779.3" class="st4">Use maximum <tspan x="5.95" class="st5" dy="1.2em">precision of inputs</tspan></text></g><g id="shape10-53" transform="translate(243.46,-337.21)"><title>Dynamic connector.14</title><desc>No</desc><path d="M0 795.2 L79.9 795.2 L79.9 550.24" class="st6"/><rect width="9.383" height="9.6" x="75.207" y="704.351" class="st8"/><text x="75.21" y="711.55" class="st9">No</text></g><g id="shape11-60" transform="translate(131,-276.46)"><title>Dynamic connector.17</title><desc>Yes</desc><path d="M0 804.2 L33.42 804.2" class="st6"/><rect width="11.008" height="9.6" x="14.726" y="799.403" class="st8"/><text x="14.73" y="806.6" class="st9">Yes</text></g><g id="shape12-67" transform="translate(171.46,-337.21)"><title>Dynamic connector.12</title><desc>Yes</desc><path d="M0 795.2 L-86.96 795.2 L-86.96 823.04" class="st6"/><rect width="11.008" height="9.6" x="-66.422" y="790.403" class="st8"/><text x="-66.42" y="797.6" class="st9">Yes</text></g><g id="shape13-74" transform="translate(38,-657.285)"><title>Decision.21</title><desc>Is node the root of a containing effect</desc><g id="shadow13-75" class="st1"><path d="M0 760.33 L46.5 725.45 L93 760.33 L46.5 795.2 L0 760.33 Z" class="st2" transform="matrix(1,0,0,1,0.345598,1.97279)"/></g><path d="M0 760.33 L46.5 725.45 L93 760.33 L46.5 795.2 L0 760.33 Z" class="st3"/><text x="13.47" y="757.93" class="st4">Is node the root of a <tspan x="19.06" class="st5" dy="1.2em">containing effect</tspan></text></g><g id="shape15-81" transform="translate(164.71,-567.835)"><title>Decision.23</title><desc>Is precision of containing effect Unkown</desc><g id="shadow15-82" class="st1"><path d="M0 760.33 L42.75 725.45 L85.5 760.33 L42.75 795.2 L0 760.33 Z" class="st2" transform="matrix(1,0,0,1,0.345598,1.97279)"/></g><path d="M0 760.33 L42.75 725.45 L85.5 760.33 L42.75 795.2 L0 760.33 Z" class="st3"/><text x="20.25" y="753.13" class="st4">Is precision of <tspan x="15.31" class="st5" dy="1.2em">containing effect </tspan><tspan x="29.19" class="st5" dy="1.2em">Unkown</tspan></text></g><g id="shape16-89" transform="translate(38,-509.335)"><title>Decision.24</title><desc>Is precision set directly on node</desc><g id="shadow16-90" class="st1"><path d="M0 760.33 L46.5 725.45 L93 760.33 L46.5 795.2 L0 760.33 Z" class="st2" transform="matrix(1,0,0,1,0.345598,1.97279)"/></g><path d="M0 760.33 L46.5 725.45 L93 760.33 L46.5 795.2 L0 760.33 Z" class="st3"/><text x="22.44" y="757.93" class="st4">Is precision set <tspan x="20.01" class="st5" dy="1.2em">directly on node</tspan></text></g><g id="shape17-96" transform="translate(38,-113.335)"><title>Decision.25</title><desc>Is node an effect and not contained in another effect</desc><g id="shadow17-97" class="st1"><path d="M0 751.33 L46.5 707.45 L93 751.33 L46.5 795.2 L0 751.33 Z" class="st2" transform="matrix(1,0,0,1,0.345598,1.97279)"/></g><path d="M0 751.33 L46.5 707.45 L93 751.33 L46.5 795.2 L0 751.33 Z" class="st3"/><text x="12.42" y="744.13" class="st4">Is node an effect and <tspan x="19.85" class="st5" dy="1.2em">not contained in </tspan><tspan x="23.19" class="st5" dy="1.2em">another effect</tspan></text></g><g id="shape18-104" transform="translate(75.5,-756)"><title>Dynamic connector.18</title><path d="M9 795.2 L9 817.13" class="st6"/></g><g id="shape19-109" transform="translate(131,-683.16)"><title>Dynamic connector.29</title><desc>Yes</desc><path d="M0 786.2 L33.42 786.2" class="st6"/><rect width="11.008" height="9.6" x="14.726" y="781.403" class="st10"/><text x="14.73" y="788.6" class="st9">Yes</text></g><g id="shape21-116" transform="translate(207.46,-567.835)"><title>Dynamic connector.31</title><desc>Yes</desc><path d="M0 795.2 L0 818.83 L-69.42 818.83" class="st6"/><rect width="11.008" height="9.6" x="-31.922" y="814.028" class="st8"/><text x="-31.92" y="821.23" class="st9">Yes</text></g><g id="shape22-123" transform="translate(75.5,-657.285)"><title>Dynamic connector.22</title><desc>No</desc><path d="M9 795.2 L9 866.36" class="st6"/><rect width="9.383" height="9.6" x="4.309" y="829.503" class="st8"/><text x="4.31" y="836.7" class="st9">No</text></g><g id="shape23-130" transform="translate(29,-544.21)"><title>Dynamic connector.23</title><desc>No</desc><path d="M9 795.2 L-9 795.2 L-9 918.95 L1.96 918.95" class="st6"/><rect width="9.383" height="9.6" x="-13.691" y="852.278" class="st8"/><text x="-13.69" y="859.48" class="st9">No</text></g><g id="shape24-137" transform="translate(75.5,-232.585)"><title>Dynamic connector.34</title><desc>No</desc><path d="M9 795.2 L9 819.66" class="st6"/><rect width="9.383" height="9.6" x="4.309" y="806.153" class="st8"/><text x="4.31" y="813.35" class="st9">No</text></g><g id="shape25-144" transform="translate(131,-148.21)"><title>Dynamic connector.35</title><desc>Yes</desc><path d="M0 786.2 L33.42 786.2" class="st6"/><rect width="11.008" height="9.6" x="14.726" y="781.403" class="st8"/><text x="14.73" y="788.6" class="st9">Yes</text></g><g id="shape26-151" transform="translate(75.5,-113.335)"><title>Dynamic connector.36</title><desc>No</desc><path d="M9 795.2 L9 869.15" class="st6"/><rect width="9.383" height="9.6" x="4.309" y="830.896" class="st8"/><text x="4.31" y="838.1" class="st9">No</text></g><g id="shape27-158" transform="translate(250.21,-611.71)"><title>Dynamic connector.37</title><desc>No</desc><path d="M0 804.2 L30.11 804.2" class="st6"/><rect width="9.383" height="9.6" x="13.883" y="799.403" class="st8"/><text x="13.88" y="806.6" class="st9">No</text></g><g id="shape28-165" transform="translate(84.5,-509.898)"><title>Dynamic connector.39</title><desc>Yes</desc><path d="M0 795.76 L0 812.64 L79.92 812.64" class="st6"/><rect width="11.008" height="9.6" x="29.539" y="807.84" class="st8"/><text x="29.54" y="815.04" class="st9">Yes</text></g><g id="shape31-172" transform="translate(272.398,-58.2101)"><title>Decision.43</title><desc>Is precision of all inputs Unkown</desc><g id="shadow31-173" class="st1"><path d="M0 760.33 L45.55 725.45 L91.1 760.33 L45.55 795.2 L0 760.33 Z" class="st2" transform="matrix(1,0,0,1,0.345598,1.97279)"/></g><path d="M0 760.33 L45.55 725.45 L91.1 760.33 L45.55 795.2 L0 760.33 Z" class="st3"/><text x="18.39" y="757.93" class="st4">Is precision of all <tspan x="20.96" class="st5" dy="1.2em">inputs Unkown</tspan></text></g><g id="shape32-179" transform="translate(272.398,-102.085)"><title>Dynamic connector.44</title><desc>No</desc><path d="M0 804.2 L-21.9 804.2" class="st6"/><rect width="9.383" height="9.6" x="-19.16" y="799.403" class="st8"/><text x="-19.16" y="806.6" class="st9">No</text></g><g id="shape33-186" transform="translate(317.949,-58.2101)"><title>Dynamic connector.33</title><desc>Yes</desc><path d="M0 795.2 L0 834.56 L-190.41 834.56" class="st6"/><rect width="11.008" height="9.6" x="-84.547" y="829.765" class="st8"/><text x="-84.55" y="836.96" class="st9">Yes</text></g><g id="shape38-193" transform="translate(287.358,-589.21)"><title>Start/End.38</title><desc>Use precision of containing effect</desc><g id="shadow38-194" class="st1"><path d="M13.5 795.2 L58.5 795.2 A13.5 13.5 -180 0 0 58.5 768.2 L13.5 768.2 A13.5 13.5 -180 1 0 13.5 795.2 Z" class="st2" transform="matrix(1,0,0,1,0.345598,1.97279)"/></g><path d="M13.5 795.2 L58.5 795.2 A13.5 13.5 -180 0 0 58.5 768.2 L13.5 768.2 A13.5 13.5 -180 1 0 13.5 795.2 Z" class="st3"/><text x="9.95" y="779.3" class="st4">Use precision of <tspan x="8.56" class="st5" dy="1.2em">containing effect</tspan></text></g><g id="shape39-200" transform="translate(171.46,-478.96)"><title>Start/End.39</title><desc>Use precision set on node</desc><g id="shadow39-201" class="st1"><path d="M13.5 795.2 L58.5 795.2 A13.5 13.5 -180 0 0 58.5 768.2 L13.5 768.2 A13.5 13.5 -180 1 0 13.5 795.2 Z" class="st2" transform="matrix(1,0,0,1,0.345598,1.97279)"/></g><path d="M13.5 795.2 L58.5 795.2 A13.5 13.5 -180 0 0 58.5 768.2 L13.5 768.2 A13.5 13.5 -180 1 0 13.5 795.2 Z" class="st3"/><text x="3.27" y="779.3" class="st4">Use precision set on <tspan x="27.7" class="st5" dy="1.2em">node</tspan></text></g><g id="shape41-207" transform="translate(171.46,-253.96)"><title>Start/End.41</title><desc>Use precision in rendering controls</desc><g id="shadow41-208" class="st1"><path d="M13.5 795.2 L58.5 795.2 A13.5 13.5 -180 0 0 58.5 768.2 L13.5 768.2 A13.5 13.5 -180 1 0 13.5 795.2 Z" class="st2" transform="matrix(1,0,0,1,0.345598,1.97279)"/></g><path d="M13.5 795.2 L58.5 795.2 A13.5 13.5 -180 0 0 58.5 768.2 L13.5 768.2 A13.5 13.5 -180 1 0 13.5 795.2 Z" class="st3"/><text x="10.26" y="779.3" class="st4">Use precision in <tspan x="5.99" class="st5" dy="1.2em">rendering controls</tspan></text></g><g id="shape42-214" transform="translate(48.5,-5.3478)"><title>Start/End.42</title><desc>Use precision of render target</desc><g id="shadow42-215" class="st1"><path d="M13.5 795.2 L58.5 795.2 A13.5 13.5 -180 0 0 58.5 768.2 L13.5 768.2 A13.5 13.5 -180 1 0 13.5 795.2 Z" class="st2" transform="matrix(1,0,0,1,0.345598,1.97279)"/></g><path d="M13.5 795.2 L58.5 795.2 A13.5 13.5 -180 0 0 58.5 768.2 L13.5 768.2 A13.5 13.5 -180 1 0 13.5 795.2 Z" class="st3"/><text x="9.95" y="779.3" class="st4">Use precision of <tspan x="14.26" class="st5" dy="1.2em">render target</tspan></text></g><g id="shape44-221" transform="translate(171.46,-665.16)"><title>Process.44</title><desc>Get Precision of containing effect</desc><g id="shadow44-222" class="st1" transform="matrix(1,0,0,1,0.345598,1.97279)"><rect width="72" height="54" x="0" y="741.202" class="st11"/></g><rect width="72" height="54" x="0" y="741.202" class="st12"/><text x="10.25" y="765.8" class="st4">Get Precision of <tspan x="8.56" class="st5" dy="1.2em">containing effect</tspan></text></g><g id="shape45-228" transform="translate(198.46,-665.16)"><title>Dynamic connector.45</title><path d="M9 795.2 L9 815.74" class="st6"/></g><g id="shape46-233" transform="translate(171.46,-393.46)"><title>Process.46</title><desc>Get Precision of containing effect</desc><g id="shadow46-234" class="st1" transform="matrix(1,0,0,1,0.345598,1.97279)"><rect width="72" height="54" x="0" y="741.202" class="st11"/></g><rect width="72" height="54" x="0" y="741.202" class="st12"/><text x="10.25" y="765.8" class="st4">Get Precision of <tspan x="8.56" class="st5" dy="1.2em">containing effect</tspan></text></g><g id="shape47-240" transform="translate(198.46,-393.46)"><title>Dynamic connector.47</title><path d="M9 795.2 L9 809.54" class="st6"/></g><g id="shape48-245" transform="translate(171.46,-130.21)"><title>Process.48</title><desc>Get maximum precision of effect inputs</desc><g id="shadow48-246" class="st1" transform="matrix(1,0,0,1,0.345598,1.97279)"><rect width="72" height="54" x="0" y="741.202" class="st11"/></g><rect width="72" height="54" x="0" y="741.202" class="st12"/><text x="12.99" y="761" class="st4">Get maximum <tspan x="6.62" class="st5" dy="1.2em">precision of effect </tspan><tspan x="25.87" class="st5" dy="1.2em">inputs</tspan></text></g><g id="shape49-253" transform="translate(243.46,-157.21)"><title>Dynamic connector.49</title><path d="M0 795.2 L74.49 795.2 L74.49 817.41" class="st6"/></g></g></svg>