<svg xmlns="http://www.w3.org/2000/svg" xmlns:ev="http://www.w3.org/2001/xml-events" xmlns:xlink="http://www.w3.org/1999/xlink" width="810.32" height="164.32" class="st8" color-interpolation-filters="sRGB" viewBox="0 0 607.74 123.24" xml:space="preserve"><style type="text/css">.st1{fill:#c4d6a0;stroke:#000;stroke-linecap:round;stroke-linejoin:round;stroke-width:.24}.st2{fill:#000;font-family:Calibri;font-size:.833336em}.st3,.st4{fill:#f9c499;stroke:#000;stroke-linecap:round;stroke-linejoin:round;stroke-width:.24}.st4{fill:#bfbfbf}.st5{font-size:1em}.st6,.st7{stroke:#000}.st6{marker-end:url(#mrkr13-37);stroke-linecap:round;stroke-linejoin:round;stroke-width:.75}.st7{fill:#000;fill-opacity:1;stroke-opacity:1;stroke-width:.22935779816514}.st8{fill:none;fill-rule:evenodd;font-size:12px;overflow:visible;stroke-linecap:square;stroke-miterlimit:3}</style><defs id="Markers"><g id="lend13"><path d="M 3 1 L 0 0 L 3 -1 L 3 1" style="stroke:none"/></g><marker id="mrkr13-37" class="st7" markerUnits="strokeWidth" orient="auto" overflow="visible" refX="-13.08"><use transform="scale(-4.36,-4.36)" xlink:href="#lend13"/></marker></defs><g><title>Page-1</title><g id="shape1-1" transform="translate(76.62,-45.12)"><title>Rounded Rectangle</title><desc>Effect</desc><path d="M26.1 123.24 L234.9 123.24 A26.0996 26.0996 -180 0 0 261 97.14 L261 71.34 A26.0996 26.0996 -180 0 0 234.9 45.24 L26.1 45.24 A26.0996 26.0996 -180 0 0 -0 71.34 L0 97.14 A26.0996 26.0996 -180 0 0 26.1 123.24 Z" class="st1"/><text x="118.73" y="58.24" class="st2">Effect</text></g><g id="shape2-4" transform="translate(261.12,-66.12)"><title>Ellipse</title><desc>Transform</desc><path d="M0 108.24 A32.625 15 0 0 1 65.25 108.24 A32.625 15 0 1 1 0 108.24 Z" class="st3"/><text x="11.57" y="111.24" class="st2">Transform</text></g><g id="shape3-7" transform="translate(85.62,-66.12)"><title>Ellipse.3</title><desc>Transform</desc><path d="M0 108.24 A32.625 15 0 0 1 65.25 108.24 A32.625 15 0 1 1 0 108.24 Z" class="st3"/><text x="11.57" y="111.24" class="st2">Transform</text></g><g id="shape23-10" transform="translate(166.62,-0.12)"><title>Rectangle</title><desc>Intermediate Texture</desc><rect width="81" height="30" x="0" y="93.24" class="st4"/><text x="13.89" y="105.24" class="st2">Intermediate <tspan x="24.88" class="st5" dy="1.2em">Texture</tspan></text></g><g id="shape27-14" transform="translate(342.12,-0.12)"><title>Rectangle.27</title><desc>Intermediate Texture</desc><rect width="81" height="30" x="0" y="93.24" class="st4"/><text x="13.89" y="105.24" class="st2">Intermediate <tspan x="24.88" class="st5" dy="1.2em">Texture</tspan></text></g><g id="shape28-18" transform="translate(526.62,-0.12)"><title>Rectangle.28</title><desc>Output Bitmap Texture</desc><rect width="81" height="30" x="0" y="93.24" class="st4"/><text x="10.27" y="105.24" class="st2">Output Bitmap <tspan x="24.88" class="st5" dy="1.2em">Texture</tspan></text></g><g id="shape29-22" transform="translate(400.62,-42.12)"><title>Rounded Rectangle.29</title><desc>Effect</desc><path d="M12.6 123.24 L113.4 123.24 A12.5998 12.5998 -180 0 0 126 110.64 L126 57.84 A12.5998 12.5998 -180 0 0 113.4 45.24 L12.6 45.24 A12.5998 12.5998 -180 0 0 -0 57.84 L0 110.64 A12.5998 12.5998 -180 0 0 12.6 123.24 Z" class="st1"/><text x="51.23" y="58.24" class="st2">Effect</text></g><g id="shape31-25" transform="translate(436.62,-66.12)"><title>Ellipse.31</title><desc>Transform</desc><path d="M0 108.24 A32.625 15 0 0 1 65.25 108.24 A32.625 15 0 1 1 0 108.24 Z" class="st3"/><text x="11.57" y="111.24" class="st2">Transform</text></g><g id="shape32-28" transform="translate(0.12,-0.12)"><title>Rectangle.32</title><desc>Input Bitmap Texture</desc><rect width="81" height="30" x="0" y="93.24" class="st4"/><text x="14" y="105.24" class="st2">Input Bitmap <tspan x="24.88" class="st5" dy="1.2em">Texture</tspan></text></g><g id="shape34-32" transform="translate(-51.79,11.5818) rotate(-48.5763)"><title>Sheet.34</title><path d="M0 123.24 L58.2 123.24" class="st6"/></g><g id="shape35-38" transform="translate(270.744,13.5137) rotate(76.5782)"><title>Sheet.35</title><path d="M0 123.24 L58.04 123.24" class="st6"/></g><g id="shape36-43" transform="translate(126.88,83.4232) rotate(-78.4399)"><title>Sheet.36</title><path d="M0 123.24 L57.56 123.24" class="st6"/></g><g id="shape37-48" transform="translate(446.244,13.5137) rotate(76.5782)"><title>Sheet.37</title><path d="M0 123.24 L58.04 123.24" class="st6"/></g><g id="shape38-53" transform="translate(302.38,83.4232) rotate(-78.4399)"><title>Sheet.38</title><path d="M0 123.24 L57.56 123.24" class="st6"/></g><g id="shape39-58" transform="translate(617.263,-1.15245) rotate(69.444)"><title>Sheet.39</title><path d="M0 123.24 L60.68 123.24" class="st6"/></g></g></svg>